<svg id="Layer_1" data-name="Layer 1" xmlns="http://www.w3.org/2000/svg" xmlns:xlink="http://www.w3.org/1999/xlink" viewBox="0 0 1400 1050"><defs><style>.cls-1{fill:none;}.cls-2{clip-path:url(#clip-path);}.cls-3{fill:url(#linear-gradient);}.cls-4{fill:url(#linear-gradient-2);}.cls-5{fill:url(#linear-gradient-3);}.cls-6{fill:url(#linear-gradient-4);}.cls-7{fill:url(#linear-gradient-5);}.cls-8{fill:url(#linear-gradient-6);}.cls-9{fill:url(#linear-gradient-7);}.cls-10{fill:url(#linear-gradient-8);}.cls-11{fill:url(#linear-gradient-9);}.cls-12{fill:url(#linear-gradient-10);}.cls-13{fill:url(#linear-gradient-11);}.cls-14{fill:#31364a;}.cls-15{fill:url(#linear-gradient-12);}.cls-16{fill:#eb7460;}.cls-17,.cls-20{fill:#10162c;}.cls-17,.cls-28{opacity:0.5;}.cls-18{fill:url(#linear-gradient-13);}.cls-19{fill:url(#linear-gradient-14);}.cls-21{fill:url(#linear-gradient-15);}.cls-22{fill:url(#linear-gradient-16);}.cls-23{fill:url(#linear-gradient-17);}.cls-24{fill:url(#linear-gradient-18);}.cls-25{fill:url(#linear-gradient-19);}.cls-26{fill:url(#linear-gradient-20);}.cls-27{fill:url(#linear-gradient-21);}.cls-29{fill:url(#linear-gradient-22);}.cls-30{fill:url(#linear-gradient-23);}.cls-31{fill:url(#linear-gradient-24);}.cls-32{fill:#0d0a27;}.cls-33{fill:url(#linear-gradient-25);}.cls-34{fill:url(#linear-gradient-26);}.cls-35{fill:url(#linear-gradient-27);}.cls-36{fill:url(#linear-gradient-28);}.cls-37{fill:url(#linear-gradient-29);}.cls-38{fill:url(#linear-gradient-30);}.cls-39{fill:url(#linear-gradient-31);}.cls-40{fill:url(#linear-gradient-32);}.cls-41{fill:#4e4246;}.cls-42{fill:url(#linear-gradient-33);}.cls-43{fill:url(#linear-gradient-34);}.cls-44{fill:url(#linear-gradient-35);}.cls-45{fill:#211324;}.cls-46{fill:#962914;}.cls-47{fill:url(#linear-gradient-36);}.cls-48{fill:url(#linear-gradient-37);}.cls-49{fill:url(#linear-gradient-38);}.cls-50{fill:url(#linear-gradient-39);}.cls-51{fill:url(#linear-gradient-40);}.cls-52{fill:url(#linear-gradient-41);}.cls-53{fill:#0d0a25;}.cls-54{fill:url(#linear-gradient-42);}.cls-55{fill:url(#linear-gradient-43);}.cls-56{fill:url(#linear-gradient-44);}.cls-57{fill:#c64c30;}.cls-58{fill:#932b19;}.cls-59{fill:url(#linear-gradient-45);}.cls-60{fill:#331607;}.cls-61{fill:url(#linear-gradient-46);}.cls-62{fill:#893c1a;}.cls-63{fill:#e89754;}.cls-64{fill:#d6844c;}.cls-65{fill:url(#linear-gradient-47);}.cls-66{fill:#9e4b26;}.cls-67{fill:url(#linear-gradient-48);}.cls-68{fill:url(#linear-gradient-49);}.cls-69{fill:url(#linear-gradient-50);}.cls-70{fill:#f2a16b;}.cls-71{fill:url(#linear-gradient-51);}.cls-72{fill:#c45141;}.cls-73{fill:#d13924;}.cls-74{fill:url(#linear-gradient-52);}.cls-75{fill:url(#linear-gradient-53);}.cls-76{fill:url(#linear-gradient-54);}.cls-77{fill:#f69d4b;}.cls-78{fill:#fdf169;}.cls-79{fill:#f2f79b;}.cls-80{fill:#432b39;}.cls-81{fill:url(#linear-gradient-55);}.cls-82{fill:#c08a4e;}.cls-83{fill:url(#linear-gradient-56);}.cls-84{fill:url(#linear-gradient-57);}.cls-85{fill:url(#linear-gradient-58);}.cls-86{fill:#f5c78b;}</style><clipPath id="clip-path"><rect id="_Rectangle_" data-name="&lt;Rectangle&gt;" class="cls-1" width="1400" height="1050"/></clipPath><linearGradient id="linear-gradient" x1="700" y1="-312.05" x2="700" y2="1043.13" gradientUnits="userSpaceOnUse"><stop offset="0" stop-color="#141124"/><stop offset="0.68" stop-color="#f66f73"/><stop offset="1" stop-color="#d68196"/></linearGradient><linearGradient id="linear-gradient-2" x1="1357.91" y1="353.85" x2="1357.91" y2="484.8" gradientUnits="userSpaceOnUse"><stop offset="0" stop-color="#503351"/><stop offset="1" stop-color="#e76a7c"/></linearGradient><linearGradient id="linear-gradient-3" x1="891.62" y1="209.22" x2="891.62" y2="498.5" xlink:href="#linear-gradient-2"/><linearGradient id="linear-gradient-4" x1="522.42" y1="293.88" x2="522.42" y2="538.41" xlink:href="#linear-gradient-2"/><linearGradient id="linear-gradient-5" x1="1234.28" y1="371.34" x2="1234.28" y2="519.74" gradientUnits="userSpaceOnUse"><stop offset="0" stop-color="#13182c"/><stop offset="1" stop-color="#d68196"/></linearGradient><linearGradient id="linear-gradient-6" x1="282.13" y1="335.45" x2="261.35" y2="582.27" xlink:href="#linear-gradient-5"/><linearGradient id="linear-gradient-7" x1="925.14" y1="440.65" x2="925.14" y2="549.47" gradientUnits="userSpaceOnUse"><stop offset="0" stop-color="#55476a"/><stop offset="1" stop-color="#d68196"/></linearGradient><linearGradient id="linear-gradient-8" x1="579.77" y1="520.57" x2="579.77" y2="521.57" gradientUnits="userSpaceOnUse"><stop offset="0" stop-color="#f29880"/><stop offset="0.5" stop-color="#b06778"/><stop offset="1" stop-color="#644059"/></linearGradient><linearGradient id="linear-gradient-9" x1="709.13" y1="523.17" x2="709.13" y2="819.51" xlink:href="#linear-gradient-8"/><linearGradient id="linear-gradient-10" x1="1234.28" y1="486.7" x2="1234.28" y2="545.18" gradientTransform="matrix(1, 0, 0, -1, 0, 1066.07)" gradientUnits="userSpaceOnUse"><stop offset="0" stop-color="#7e4659"/><stop offset="1" stop-color="#d46867"/></linearGradient><linearGradient id="linear-gradient-11" x1="282.75" y1="472.57" x2="282.75" y2="546.12" xlink:href="#linear-gradient-10"/><linearGradient id="linear-gradient-12" x1="-46.37" y1="1179.38" x2="1460.49" y2="1179.38" gradientUnits="userSpaceOnUse"><stop offset="0" stop-color="#f47a62"/><stop offset="0.18" stop-color="#ef7761"/><stop offset="0.39" stop-color="#e16d5d"/><stop offset="0.61" stop-color="#ca5d56"/><stop offset="0.83" stop-color="#aa474d"/><stop offset="1" stop-color="#8e3345"/></linearGradient><linearGradient id="linear-gradient-13" x1="930.54" y1="887.05" x2="1446.38" y2="887.05" gradientUnits="userSpaceOnUse"><stop offset="0" stop-color="#514d4c"/><stop offset="0.15" stop-color="#434046"/><stop offset="0.46" stop-color="#2c2a3b"/><stop offset="0.75" stop-color="#1e1d35"/><stop offset="1" stop-color="#191933"/></linearGradient><linearGradient id="linear-gradient-14" x1="1369.79" y1="707.59" x2="1228.68" y2="811.07" gradientUnits="userSpaceOnUse"><stop offset="0" stop-color="#5b5c4a"/><stop offset="0.15" stop-color="#686047"/><stop offset="0.45" stop-color="#7f6741"/><stop offset="0.75" stop-color="#8d6b3e"/><stop offset="1" stop-color="#926c3d"/></linearGradient><linearGradient id="linear-gradient-15" x1="1050.39" y1="936.79" x2="1502.82" y2="936.79" xlink:href="#linear-gradient-13"/><linearGradient id="linear-gradient-16" x1="1104.01" y1="903.47" x2="1502.82" y2="903.47" gradientUnits="userSpaceOnUse"><stop offset="0" stop-color="#926c3d"/><stop offset="0.25" stop-color="#8d6b3e"/><stop offset="0.55" stop-color="#7f6741"/><stop offset="0.85" stop-color="#686047"/><stop offset="1" stop-color="#5b5c4a"/></linearGradient><linearGradient id="linear-gradient-17" x1="575.24" y1="836.86" x2="1010.87" y2="836.86" xlink:href="#linear-gradient-13"/><linearGradient id="linear-gradient-18" x1="-21.17" y1="705.62" x2="659.41" y2="705.62" gradientUnits="userSpaceOnUse"><stop offset="0" stop-color="#342528"/><stop offset="0.24" stop-color="#392a29"/><stop offset="0.52" stop-color="#47372c"/><stop offset="0.81" stop-color="#5e4d30"/><stop offset="1" stop-color="#705f34"/></linearGradient><linearGradient id="linear-gradient-19" x1="307.25" y1="737.16" x2="413.68" y2="737.16" xlink:href="#linear-gradient-18"/><linearGradient id="linear-gradient-20" x1="33.44" y1="680.16" x2="202.39" y2="680.16" xlink:href="#linear-gradient-18"/><linearGradient id="linear-gradient-21" x1="752.32" y1="693.18" x2="740.73" y2="760.64" xlink:href="#linear-gradient-14"/><linearGradient id="linear-gradient-22" x1="1182.97" y1="377.47" x2="1126.53" y2="417.45" gradientUnits="userSpaceOnUse"><stop offset="0" stop-color="#7c2013"/><stop offset="1" stop-color="#df6244"/></linearGradient><linearGradient id="linear-gradient-23" x1="1088.75" y1="464.49" x2="1149.89" y2="440.18" gradientUnits="userSpaceOnUse"><stop offset="0" stop-color="#c14f2b"/><stop offset="1" stop-color="#211324"/></linearGradient><linearGradient id="linear-gradient-24" x1="901.99" y1="812.93" x2="1105.43" y2="676.53" gradientUnits="userSpaceOnUse"><stop offset="0" stop-color="#342931"/><stop offset="1" stop-color="#0e0b2a"/></linearGradient><linearGradient id="linear-gradient-25" x1="1102.38" y1="764.68" x2="994.19" y2="749.79" gradientUnits="userSpaceOnUse"><stop offset="0" stop-color="#f2a16b"/><stop offset="1" stop-color="#d6844c"/></linearGradient><linearGradient id="linear-gradient-26" x1="1125.16" y1="599.22" x2="1016.97" y2="584.32" gradientUnits="userSpaceOnUse"><stop offset="0" stop-color="#df6244"/><stop offset="0.26" stop-color="#df6545"/><stop offset="0.43" stop-color="#e06e48"/><stop offset="0.58" stop-color="#e17d4d"/><stop offset="0.71" stop-color="#e39255"/><stop offset="0.84" stop-color="#e6ae5e"/><stop offset="0.95" stop-color="#e9d069"/><stop offset="1" stop-color="#eae06f"/></linearGradient><linearGradient id="linear-gradient-27" x1="1106.7" y1="733.26" x2="998.52" y2="718.37" xlink:href="#linear-gradient-22"/><linearGradient id="linear-gradient-28" x1="1070.36" y1="551.54" x2="1241.59" y2="551.54" gradientUnits="userSpaceOnUse"><stop offset="0" stop-color="#eae06f"/><stop offset="1" stop-color="#df6244"/></linearGradient><linearGradient id="linear-gradient-29" x1="1139.58" y1="553.19" x2="1181.14" y2="553.19" gradientUnits="userSpaceOnUse"><stop offset="0" stop-color="#df6244"/><stop offset="1" stop-color="#4e444f"/></linearGradient><linearGradient id="linear-gradient-30" x1="1314.12" y1="581.91" x2="1232.98" y2="613.66" xlink:href="#linear-gradient-26"/><linearGradient id="linear-gradient-31" x1="1378.89" y1="747.44" x2="1297.76" y2="779.19" gradientUnits="userSpaceOnUse"><stop offset="0" stop-color="#d6844c"/><stop offset="1" stop-color="#f2a16b"/></linearGradient><linearGradient id="linear-gradient-32" x1="1102.74" y1="489.15" x2="1203.63" y2="448.17" xlink:href="#linear-gradient-29"/><linearGradient id="linear-gradient-33" x1="1169.27" y1="472.99" x2="1150.45" y2="447.12" gradientUnits="userSpaceOnUse"><stop offset="0" stop-color="#f2a16b"/><stop offset="1" stop-color="#9e4b26"/></linearGradient><linearGradient id="linear-gradient-34" x1="1104.59" y1="416.24" x2="1169.08" y2="416.24" xlink:href="#linear-gradient-25"/><linearGradient id="linear-gradient-35" x1="1107.6" y1="418.9" x2="1168.75" y2="394.6" xlink:href="#linear-gradient-23"/><linearGradient id="linear-gradient-36" x1="1366.08" y1="714.7" x2="1284.95" y2="746.45" xlink:href="#linear-gradient-22"/><linearGradient id="linear-gradient-37" x1="668.49" y1="982.18" x2="785.11" y2="982.18" xlink:href="#linear-gradient-22"/><linearGradient id="linear-gradient-38" x1="668.49" y1="956.81" x2="785.11" y2="956.81" xlink:href="#linear-gradient-25"/><linearGradient id="linear-gradient-39" x1="668.49" y1="989.36" x2="785.11" y2="989.36" xlink:href="#linear-gradient-25"/><linearGradient id="linear-gradient-40" x1="604.07" y1="428.64" x2="641.37" y2="536.51" xlink:href="#linear-gradient-28"/><linearGradient id="linear-gradient-41" x1="602.8" y1="646.43" x2="602.8" y2="756.98" xlink:href="#linear-gradient-24"/><linearGradient id="linear-gradient-42" x1="678.07" y1="805.18" x2="678.07" y2="727.57" gradientUnits="userSpaceOnUse"><stop offset="0" stop-color="#c64c30"/><stop offset="1" stop-color="#0e0b2a"/></linearGradient><linearGradient id="linear-gradient-43" x1="465.54" y1="876.1" x2="740.09" y2="876.1" gradientUnits="userSpaceOnUse"><stop offset="0" stop-color="#0e0b2a"/><stop offset="1" stop-color="#342931"/></linearGradient><linearGradient id="linear-gradient-44" x1="465.5" y1="793.73" x2="740.1" y2="793.73" gradientUnits="userSpaceOnUse"><stop offset="0" stop-color="#0e0b2a"/><stop offset="1" stop-color="#c64c30"/></linearGradient><linearGradient id="linear-gradient-45" x1="693.91" y1="434.25" x2="724.49" y2="510.68" gradientUnits="userSpaceOnUse"><stop offset="0" stop-color="#4e444f"/><stop offset="1" stop-color="#df6244"/></linearGradient><linearGradient id="linear-gradient-46" x1="585.84" y1="547.83" x2="656.08" y2="644.15" xlink:href="#linear-gradient-22"/><linearGradient id="linear-gradient-47" x1="629.4" y1="396.37" x2="677.22" y2="474.77" xlink:href="#linear-gradient-45"/><linearGradient id="linear-gradient-48" x1="600.69" y1="326.41" x2="627.73" y2="372.66" gradientUnits="userSpaceOnUse"><stop offset="0" stop-color="#211324"/><stop offset="1" stop-color="#c14f2b"/></linearGradient><linearGradient id="linear-gradient-49" x1="521.06" y1="551.85" x2="532.82" y2="620.06" xlink:href="#linear-gradient-28"/><linearGradient id="linear-gradient-50" x1="802.97" y1="535" x2="848.83" y2="614.96" gradientUnits="userSpaceOnUse"><stop offset="0" stop-color="#df6244"/><stop offset="1" stop-color="#eae06f"/></linearGradient><linearGradient id="linear-gradient-51" x1="667" y1="431.06" x2="627.02" y2="380.89" xlink:href="#linear-gradient-25"/><linearGradient id="linear-gradient-52" x1="816.09" y1="449.76" x2="874.88" y2="449.76" xlink:href="#linear-gradient-22"/><linearGradient id="linear-gradient-53" x1="727.68" y1="592.56" x2="748.85" y2="810.1" xlink:href="#linear-gradient-43"/><linearGradient id="linear-gradient-54" x1="737.93" y1="634.81" x2="759.1" y2="852.36" xlink:href="#linear-gradient-44"/><linearGradient id="linear-gradient-55" x1="1095.17" y1="997.25" x2="1432.27" y2="997.25" gradientUnits="userSpaceOnUse"><stop offset="0" stop-color="#814a23"/><stop offset="0.17" stop-color="#7c4823"/><stop offset="0.37" stop-color="#6e4024"/><stop offset="0.58" stop-color="#573425"/><stop offset="0.8" stop-color="#372427"/><stop offset="1" stop-color="#131129"/></linearGradient><linearGradient id="linear-gradient-56" x1="869.39" y1="1081.48" x2="944.65" y2="1081.48" xlink:href="#linear-gradient-55"/><linearGradient id="linear-gradient-57" x1="594.59" y1="1014.85" x2="631.59" y2="1014.85" xlink:href="#linear-gradient-55"/><linearGradient id="linear-gradient-58" x1="941.71" y1="1017.16" x2="983.15" y2="1017.16" xlink:href="#linear-gradient-55"/></defs><title>CampfireMusic</title><g class="cls-2"><rect id="_Rectangle_2" data-name="&lt;Rectangle&gt;" class="cls-3" y="-324.99" width="1400" height="1816.65"/><g id="_Group_" data-name="&lt;Group&gt;"><path id="_Path_" data-name="&lt;Path&gt;" class="cls-4" d="M1478.87,540.23V408.62l-57.24-29.08c-13.67-7-28.49-14.1-43.64-11.78-11.8,1.81-21.88,9.11-31.84,15.67-34,22.39-71.7,38.34-109.19,54.15V556.74Z"/><path id="_Path_2" data-name="&lt;Path&gt;" class="cls-5" d="M350.91,537.6V293.18c123.22-27.65,249.63-56.63,354.43-127.08,20.71-13.92,43.6-30.17,68.15-25.72,8.27,1.5,15.93,5.31,23.27,9.43,67.6,37.95,116.79,104.61,187.45,136.52,16.15,7.29,33.68,12.95,46.38,25.31,6.25,6.08,11,13.52,17.18,19.72,32.6,32.87,88.44,20.06,131.49,37.1,20.74,8.22,37.94,23.24,56.94,34.94,61.14,37.68,140.68,41,196.13,86.61v64.23Z"/><path id="_Path_3" data-name="&lt;Path&gt;" class="cls-6" d="M1096.65,531c-33-20.92-70-34.35-106.71-47.63-26.54-9.6-53.3-19.25-81.22-23.37-22.29-3.28-44.93-3-67.39-4.79-98.65-8-180.67-73.81-275.94-100.61-22.43-6.31-21.15-46-43.49-52.6l-92.35-27.29c-22.84-6.75-45.75-13.52-67.62-23C321.54,234.3,285.6,208.21,250,182.34c-21.27-15.46-40.88-30.6-62.15-46.07-24.82-22.53-161.32,49.56-239.68,80.79V551.22Z"/></g><g id="_Group_2" data-name="&lt;Group&gt;"><polygon id="_Path_4" data-name="&lt;Path&gt;" class="cls-7" points="1400 286.42 1400 520.56 1068.56 520.56 1068.56 499.94 1079.33 461.37 1083.37 493.45 1092.87 460.94 1099.11 487.9 1105.27 461.37 1110.21 486.88 1121.68 455.84 1123.92 481.92 1132.1 439.4 1140.17 474.63 1146.9 449.8 1154.09 479.05 1166.91 416.28 1174.46 469.44 1184.5 429.52 1195.37 466.07 1202.89 416.28 1208.77 461.37 1212.96 425.53 1217.97 466.12 1228.03 402.22 1235.56 456.57 1241.91 422.52 1246.8 453.68 1257.31 402.22 1265.9 451.73 1280.2 376.49 1289.13 441.64 1298.4 396.2 1307.55 430.02 1316.77 375.48 1325.14 420.52 1336.85 344.46 1346.05 420.52 1352.85 358.48 1359.92 416.28 1367.19 337.45 1374.67 402.22 1400 286.42"/><polygon id="_Path_5" data-name="&lt;Path&gt;" class="cls-8" points="573.82 496.74 579.52 520.56 -14.02 520.56 -14.02 135.69 16.63 317.13 25.66 215.65 34.45 339.17 42.99 248.57 51.2 345.8 62.35 226.63 76.5 345.8 86.62 275.24 97.77 360.69 108.82 307.7 120.01 378.89 130.83 276.8 148.12 394.69 158.49 317.13 171.21 397.73 177.09 348.93 184.81 402.29 193.91 317.13 206.04 417.25 212.11 353.63 217.19 409.79 224.29 339.17 233.37 417.18 246.52 359.91 258.68 422.42 267.78 339.17 283.3 437.5 291.98 391.68 300.12 430.58 309.88 375.38 319.75 442.01 322.46 401.14 336.36 449.77 342.31 409.79 349.76 451.37 357.29 409.16 368.77 460.05 373.66 409.79 375.35 417.6 375.35 405.54 394.12 474.58 399.65 435.97 405.06 482.96 410.28 448.48 415.31 485.47 422.13 440.13 430.81 485.47 437.02 458.64 443.84 491.14 450.61 470.99 457.48 498.08 464.11 459.23 474.72 504.08 481.04 474.58 488.85 505.25 492.47 486.67 497.18 506.97 502.75 474.58 510.21 512.68 513.92 488.46 517.03 509.84 521.38 482.96 526.95 512.64 535.02 490.86 542.45 514.64 548.02 482.96 557.55 520.38 562.87 502.95 567.85 517.74 573.82 496.74"/><polygon id="_Path_6" data-name="&lt;Path&gt;" class="cls-9" points="1117.41 487.96 1114.98 504.06 1109.29 487.76 1105.56 501.28 1101.86 487.96 1098.9 500.76 1092.02 485.19 1090.67 498.28 1085.77 476.95 1080.94 494.62 1076.89 482.16 1072.59 496.84 1064.9 465.35 1060.38 492.01 1054.36 472 1047.83 490.33 1043.33 465.35 1039.8 487.96 1037.29 469.99 1034.28 490.35 1028.26 458.3 1023.74 485.56 1019.92 468.48 1017 484.1 1010.69 458.3 1005.55 483.13 996.97 445.39 991.61 478.07 986.06 455.28 980.57 472.24 975.05 444.89 970.03 467.48 963 429.33 957.48 467.48 953.41 436.36 949.17 465.35 944.81 425.81 934.14 466.96 921.94 424.39 916.82 463.01 905.47 425.81 901.1 465.35 896.87 436.36 892.8 467.48 887.27 429.33 880.25 467.48 875.23 444.89 869.71 472.24 864.22 455.28 858.66 478.07 853.31 445.39 844.72 483.13 839.59 458.3 833.27 484.1 830.35 468.48 826.54 485.56 822.02 458.3 816 490.35 812.99 469.99 810.48 487.96 806.95 465.35 802.45 490.33 795.92 472 789.9 492.01 785.38 465.35 777.68 496.84 773.38 482.16 769.34 494.62 764.51 476.95 759.6 498.28 758.26 485.19 751.37 500.76 748.42 487.96 744.72 501.28 740.99 487.76 735.29 504.06 732.86 487.96 726.4 507.31 726.4 533.61 925.14 533.61 1123.88 533.61 1123.88 507.31 1117.41 487.96"/></g><polygon id="_Path_7" data-name="&lt;Path&gt;" class="cls-10" points="579.52 520.56 580.03 520.56 579.87 522.09 579.52 520.56"/><g id="_Group_3" data-name="&lt;Group&gt;"><rect id="_Rectangle_3" data-name="&lt;Rectangle&gt;" class="cls-11" x="-14.01" y="520.57" width="1446.27" height="453.33"/><polygon id="_Path_8" data-name="&lt;Path&gt;" class="cls-12" points="1400 612.84 1400 520.56 1068.56 520.56 1068.56 528.69 1079.33 543.89 1083.37 531.25 1092.87 544.06 1099.11 533.44 1105.27 543.89 1110.21 533.84 1121.68 546.07 1123.92 535.79 1132.1 552.55 1140.17 538.66 1146.9 548.45 1154.09 536.92 1166.91 561.66 1174.46 540.71 1184.5 556.44 1195.37 542.04 1202.89 561.66 1208.77 543.89 1212.96 558.02 1217.97 542.02 1228.03 567.2 1235.56 545.78 1241.91 559.21 1246.8 546.92 1257.31 567.2 1265.9 547.69 1280.2 577.34 1289.13 551.67 1298.4 569.58 1307.55 556.25 1316.77 577.74 1325.14 559.99 1336.85 589.97 1346.05 559.99 1352.85 584.44 1359.92 561.66 1367.19 592.73 1374.67 567.2 1400 612.84"/><polygon id="_Path_9" data-name="&lt;Path&gt;" class="cls-13" points="573.82 529.95 579.52 520.56 -14.02 520.56 -14.02 672.25 16.63 600.74 25.66 640.73 34.45 592.05 42.99 627.75 51.2 589.44 62.35 636.4 76.5 589.44 86.62 617.25 97.77 583.57 108.82 604.45 120.01 576.4 130.83 616.63 148.12 570.17 158.49 600.74 171.21 568.97 177.09 588.21 184.81 567.18 193.91 600.74 206.04 561.28 212.11 586.35 217.19 564.22 224.29 592.05 233.37 561.31 246.52 583.88 258.68 559.24 267.78 592.05 283.3 553.3 291.98 571.36 300.12 556.02 309.88 577.78 319.75 551.52 322.46 567.63 336.36 548.46 342.31 564.22 349.76 547.83 357.29 564.47 368.77 544.41 373.66 564.22 375.35 561.14 375.35 565.9 394.12 538.68 399.65 553.9 405.06 535.38 410.28 548.97 415.31 534.39 422.13 552.26 430.81 534.39 437.02 544.97 443.84 532.16 450.61 540.1 457.48 529.42 464.11 544.74 474.72 527.06 481.04 538.68 488.85 526.6 492.47 533.92 497.18 525.92 502.75 538.68 510.21 523.67 513.92 533.22 517.03 524.79 521.38 535.38 526.95 523.69 535.02 532.27 542.45 522.9 548.02 535.38 557.55 520.64 562.87 527.51 567.85 521.68 573.82 529.95"/></g><path id="_Path_10" data-name="&lt;Path&gt;" class="cls-14" d="M1405.19,795.8V705.65c3.61-9.47-1.46-21.36-10.79-25.31-9.61-4.07-20,.71-25.59,8.93-2-14.25,1.41-24.69-13.66-22.61-3.43.48-23.06,12.64-21.86,16.63q-2.82-9.37-5.63-18.74c-.69-2.33-1.73-5-4.07-5.66-3.08-.86-5.66,2.37-7,5.25a60.27,60.27,0,0,0-5.73,23.4c-3.79-9-9.92-19.55-19.66-19-6.55.36-11.77,6.18-13.58,12.48s-.95,13-.08,19.54c-.67-5.76-7.67-9-13.35-7.78s-10.19,5.36-14.39,9.36c6.35-6.81.65-19.55-8.5-21.26s-18.27,5.53-21.1,14.39c-4.91-5.17-.64-14-3.36-20.64-2.25-5.47-9.08-8-14.89-6.84s-10.69,5-14.8,9.27a75.26,75.26,0,0,0-14.83,22.14c1-8.88-10.63-14.76-19.09-11.91s-19.15,10.57-24,18.06c-13.65,3.1-23.08-21.66-36.16-16.67-4,1.53-6.57,5.6-10.51,7.26-6.83,2.89-14.06-2.29-20.85-5.25-14.73-6.42-33.59-1.34-43.11,11.61A29.56,29.56,0,0,0,966,697.14a24,24,0,0,0-17.6-19.84C939.29,675,919,681,913.6,688.74c-14.91-10.84-38-8-49.89,6.08,1-3.28,2-6.7,1.46-10.09s-3.18-6.7-6.61-6.82c-2-.08-3.91.92-5.64,2a81.56,81.56,0,0,0-15.31,11.86c1.1-4.8,2.2-9.78,1.23-14.62s-4.6-9.5-9.5-10c-5.11-.54-9.65,3.45-12.24,7.88s-4,9.53-6.88,13.76a59.54,59.54,0,0,0-12.72-30.6c-2.22-2.75-5.2-5.52-8.72-5.23s-6.19,3.74-7.94,7a73.47,73.47,0,0,0-8.69,32.24,21.91,21.91,0,0,0-24.36-7c-8.48,3.16-20.28,13.4-19.72,22.44-12.32-1.09-21.93-18.18-33.17-13-3.41,1.57-6.31,5.14-10,4.57-1.91-.3-3.45-1.67-5-2.88-7.21-5.72-16.79-8.66-25.84-7S636.8,697.36,634,706.12c-14.44-9.21-32.72-11-49.57-7.87S550.85,710.68,535.87,719c.83-9.15-8.41-16.68-17.57-17.49s-18,3.15-26.3,7c.4-10.79-13.26-18-23.43-14.35s-16.31,14.2-18.73,24.72A14.09,14.09,0,0,0,425,709.81c3.48-8.92,5.91-21.31-2.34-26.19-4.64-2.74-10.83-1.34-15.11,2s-7.06,8.09-9.74,12.77a232.63,232.63,0,0,0-1.5-31.44c-8.66-.09-16.61,7.75-16.64,16.41l-13.71-24.39c-3.05-5.43-9.93-11.55-14.31-7.13-2.24,2.26-1.88,5.93-1.37,9.07q3.24,19.6,6.46,39.23c-7.68-7.82-19.69-12.51-30.61-11.66,7.27-8.32,4.27-23.28-5.64-28.16s-23.6,1.86-25.76,12.7c2.41-5.86,4.88-12.09,3.93-18.36s-6.73-12.27-12.94-11c-2.74.55-5,2.35-7.16,4.15a149.41,149.41,0,0,0-13.62,13.13c-3.27-7-1.58-15.28-2.85-22.92s-8.67-15.74-15.69-12.45c-3.42,1.6-5.24,5.33-6.52,8.89a71.25,71.25,0,0,0-3.9,30.84c-7.6-4.37-9.21-17.56-18-18-6.55-.32-10.48,7.51-10.56,14.07s1.85,13.4-.53,19.52c-1.55-6.32-3.18-12.85-7.14-18s-11.46-7.71-17.63-5.63c5.27-6.91,10.81-15.66,7.42-23.65-2.58-6.09-9.78-9.16-16.4-8.93s-12.82,3.09-18.82,5.89c4.92-3.18,10.07-6.6,12.66-11.86s1.35-12.86-4-15.17c-2.53-1.08-5.41-.82-8.12-.34a56.29,56.29,0,0,0-26.48,12.47c8.43-10.1,17.26-21.17,18-34.31s-11.12-27.52-23.76-23.89c-5.58,1.6-9.78,6.14-13.29,10.76A109.84,109.84,0,0,0,90.73,606a97.15,97.15,0,0,0-4.35-17.62,11.81,11.81,0,0,0-3-5.23c-3.53-3.08-9.47-1.1-12.12,2.76s-3,8.81-3.14,13.49a95,95,0,0,0-20.5-27.58c-1.49-1.38-3.29-2.8-5.3-2.53-3.49.46-4.25,5.15-4,8.66a128,128,0,0,0,7.76,34.76l-23-17c-5.68-4.2-11.59-8.51-18.49-10s-15.11.54-18.66,6.65V835.12Z"/><g id="_Group_4" data-name="&lt;Group&gt;"><rect id="_Rectangle_4" data-name="&lt;Rectangle&gt;" class="cls-15" x="-46.37" y="775.12" width="1506.86" height="808.52"/><g id="_Group_5" data-name="&lt;Group&gt;"><path id="_Path_11" data-name="&lt;Path&gt;" class="cls-16" d="M-44.18,1053.79c131.94-31.4,269.41-27.07,405-22.55,131.65,4.38,263.35,8.77,394.67,19.08,25.29,2,52.33,4.88,71.77,21.2,8.41,7.06,14.82,16.22,22.79,23.78,22.19,21,53.85,27.69,82.7,37.83s59.14,28.16,65.92,58c3.55,15.62,0,32.67,6.25,47.44,9.64,22.93,38.72,31.85,51,53.48,16.91,29.74-5.2,66.56-30,90.15-72.42,68.93-171.9,101.34-269.7,122.14-275.36,58.56-560.49,41.09-841.45,23.35Z"/></g></g><polygon id="_Path_12" data-name="&lt;Path&gt;" class="cls-17" points="793.05 913.74 830.2 884.33 726.8 862.87 726.8 890.24 778.5 885.51 793.05 913.74"/><polygon id="_Path_13" data-name="&lt;Path&gt;" class="cls-17" points="730.27 1022.36 1104.01 925.13 959.83 914.54 709.74 1000.28 730.27 1022.36"/><polygon id="_Path_14" data-name="&lt;Path&gt;" class="cls-18" points="930.54 918.78 1039.91 941.49 1228.25 939.74 1446.38 884.33 1422.86 832.61 1313.72 832.61 977.4 862.87 930.54 918.78"/><path id="_Path_15" data-name="&lt;Path&gt;" class="cls-19" d="M1174,722.48s161.08-18,258.29,26.89l-9.41,83.24-196.61,57.63h-175.6L977.4,862.87,1106.22,737Z"/><polygon id="_Path_16" data-name="&lt;Path&gt;" class="cls-17" points="1056.99 997.25 1153.58 1038.01 1039.91 1098.38 1088.9 1127.7 1453.84 1227.77 1416.59 936.79 1104.01 982.18 1056.99 997.25"/><polygon id="_Path_17" data-name="&lt;Path&gt;" class="cls-20" points="1226.25 890.24 1228.25 939.74 1446.38 884.33 1422.86 832.61 1226.25 890.24"/><g id="_Group_6" data-name="&lt;Group&gt;"><polygon id="_Path_18" data-name="&lt;Path&gt;" class="cls-21" points="1160.36 997.25 1056.99 997.25 1050.39 973.89 1104.01 930.61 1313.72 884.33 1502.82 876.33 1488.71 941.49 1377.39 982.18 1160.36 997.25"/><polygon id="_Path_19" data-name="&lt;Path&gt;" class="cls-22" points="1104.01 930.61 1241.59 930.61 1502.82 876.33 1313.72 884.33 1104.01 930.61"/></g><path id="_Path_20" data-name="&lt;Path&gt;" class="cls-23" d="M1010.87,781.94q-51.21,55.6-107.68,106c-4.62,4.12-9.5,8.35-15.5,9.9-4.92,1.27-10.11.59-15.15-.09l-72.26-9.74C740.35,880,675,882.72,630.1,842.16A504.46,504.46,0,0,1,575.24,784C715,772.56,871,772.51,1010.87,781.94Z"/><g id="_Group_7" data-name="&lt;Group&gt;"><path id="_Path_21" data-name="&lt;Path&gt;" class="cls-24" d="M659.41,798.91H-21.17V612.33c58.58,0,115.08,25.91,172.38,38.08,20,18.36,37.56,36,51.18,59.51,74.38-1,149.18-6.54,220.37,15,16.78,19.29,46.88,28.92,72.2,32.5A546.64,546.64,0,0,0,570,762.83c16.46,0,33.13-.64,49.15,3.11S651.81,784.32,659.41,798.91Z"/><g id="_Group_8" data-name="&lt;Group&gt;"><path id="_Path_22" data-name="&lt;Path&gt;" class="cls-25" d="M461.6,749.37c-15.06-5.4-29.16-13.29-38.84-24.41H355.17Z"/><path id="_Path_23" data-name="&lt;Path&gt;" class="cls-26" d="M33.44,705.62l169,4.3c-13.62-23.53-31.14-41.15-51.18-59.51L79.72,686.69Z"/></g></g><path id="_Path_24" data-name="&lt;Path&gt;" class="cls-27" d="M889.78,718.93S832.53,706.1,759,707.83,586.58,737,586.58,737l-56,38.43,75.7,30.23,335.48-6.72Z"/><g id="_Group_9" data-name="&lt;Group&gt;" class="cls-28"><path id="_Path_25" data-name="&lt;Path&gt;" class="cls-20" d="M1162.84,890.24s65.65-101.84,268.52-132.85l.91-8C1335.06,704.52,1174,722.48,1174,722.48L1106.22,737,977.4,862.87l-46.86,55.91,109.37,22.71,58-.54C1121.19,927.87,1145.32,910.94,1162.84,890.24Z"/></g><g id="_Group_10" data-name="&lt;Group&gt;" class="cls-28"><path id="_Path_26" data-name="&lt;Path&gt;" class="cls-20" d="M876.92,716.46A624.6,624.6,0,0,0,759,707.83C685.54,709.56,586.58,737,586.58,737l-56,38.43,56.22,22.46a504.43,504.43,0,0,0,43.3,44.31C675,882.72,740.35,880,800.28,888.05L811,889.49l1.7-93.25S830.58,751.59,876.92,716.46Z"/></g><g id="_Group_11" data-name="&lt;Group&gt;"><path id="_Path_27" data-name="&lt;Path&gt;" class="cls-29" d="M1106.22,366.8a101.4,101.4,0,0,1,73.63-32.94,54.31,54.31,0,0,1,12.53,1.15c8.67,2,16.34,6.93,23.43,12.29,3.25,2.47,6.49,5.12,8.54,8.65s2.7,8.13.65,11.65c-3.68,6.3-14.14,6.85-16.39,13.79-2.87,8.87.34,18.5.3,27.82s-2.5,19.54-10.1,24.93Z"/><path id="_Path_28" data-name="&lt;Path&gt;" class="cls-30" d="M1232.42,495.4A22.88,22.88,0,0,0,1248,456c-1.67-1.59-3.6-3-4.87-4.89-1.72-2.63-2-5.93-2.76-9a24.45,24.45,0,0,0-15.66-16.71c-6.94-2.3-14.87-1.42-21.25-5-3.25-1.81-5.81-4.64-8.3-7.41-11.45-12.75-12.67-24.08-29-36.08-11.3-8.31-27.26-7.41-41.06-9.89-4.8-.85-9.75-1.6-14.52-.56-10.16,2.21-16.11,13.3-20.2,22.86s-4,21.41,2.39,29.64c2.85,3.71,7,6.85,7.81,11.45.72,3.87-1.17,7.84-3.91,10.66s-6.24,4.75-9.62,6.77A57.09,57.09,0,0,0,1072.73,460c-17.34,20.56,7.34,42.43,13.23,45.05,18.74,8.31,38-3.92,58.51-4.19s40.83-3.5,61.07-6.71C1213.1,493,1224.76,495.48,1232.42,495.4Z"/><path id="_Path_29" data-name="&lt;Path&gt;" class="cls-31" d="M768.94,992.66c-11.36-10.48-16.82-27.54-12.37-42.34A787.14,787.14,0,0,0,909,832.61c-21.21-40-43.06-83-38.89-128.13.93-10.11,3.29-20.35,8.93-28.79,9.11-13.63,25.25-20.58,40.82-25.72,37.38-12.34,77-18.48,112.36-35.8a89.19,89.19,0,0,1,27.6-8.41c22.9-3.09,45.54,6,66.47,15.82s42.3,20.64,65.39,21.31c8.19,35.94,14.52,76-3.44,108.15-6.59,11.82-16.24,21.64-26.38,30.6a293.43,293.43,0,0,1-48.92,35c-26.36,15-55.09,26-79.89,43.47-41.32,29.14-70,75.16-115.3,97.68C897.21,968,874.47,972.73,852,977.35,824.08,983.1,796.88,986.91,768.94,992.66Z"/><path id="_Path_30" data-name="&lt;Path&gt;" class="cls-32" d="M909,832.61c37.32-38.72,67.32-69,106.52-105.81,10.55-9.91,26.18-11.62,40.6-12.91s28.92.3,43.39.65c10.4.25,21.83-.53,29.42-7.64,1.62-1.52,3-4.15,1.5-5.77a4.74,4.74,0,0,0-2.28-1.11,186,186,0,0,0-58-6.19c8.79-11.67,13.67-25.19,18-39.14a116.75,116.75,0,0,0,82.66,4.65L1074.13,618a7.32,7.32,0,0,0-4.13-.87c-1.55.29-2.71,1.53-3.75,2.71a308.5,308.5,0,0,0-49.34,76c-2.8,6.13-5.52,10.95-6.68,17.58-13.45,9.5-32.54,15.7-49,14.36s-32.19-7.55-46.09-16.37c-3.51,6.05.48,14,6.24,18s12.87,5.29,19.3,8c3.29,1.4,6.9,4.06,6.41,7.6-.44,3.17-3.84,4.83-6.59,6.45a29.42,29.42,0,0,0-12.94,16.14c-3.28,10.17,1.38,23-1,33.46-1.21,5.18-3.95,9.86-6.64,14.44C916.77,820.86,912.13,827.26,909,832.61Z"/><g id="_Group_12" data-name="&lt;Group&gt;"><path id="_Path_31" data-name="&lt;Path&gt;" class="cls-33" d="M1004.15,733a140.73,140.73,0,0,0,5.85,25.57c3.48,10.45,8.74,20.78,18,26.8,1.1.72,2.54,1.39,3.65.69a3.52,3.52,0,0,0,1.27-2.4,57.22,57.22,0,0,0-2.92-33.45c1.78,4.78,5.77,7.86,10.37,10a2.37,2.37,0,0,0,1.89.28c1.14-.49.91-2.17.44-3.32-1.3-3.21-2.93-6.31-3.68-9.69-.62-2.83-.62-5.77-1.29-8.59-1-4.31-3.61-8.06-6.13-11.7.45-1.26,1-2.47,1.45-3.69a56.29,56.29,0,0,0-17.51,3.25A49.27,49.27,0,0,0,1004.15,733Z"/><path id="_Path_32" data-name="&lt;Path&gt;" class="cls-34" d="M1106.69,446.23c-14.31,14-28.93,28.39-37.22,46.59-5.48,12-7.94,25.16-11.73,37.82-4.16,13.91-10,27.26-15.74,40.57-12.94,29.76-26,59.68-33.42,91.27-5.39,23-7.59,47.19-4.43,70.52a49.27,49.27,0,0,1,11.35-6.2,56.29,56.29,0,0,1,17.51-3.25c6.7-16.93,17.26-31.34,27.19-46.78a234.64,234.64,0,0,0,35-94.95C1101.44,536.33,1119.79,490.23,1106.69,446.23Z"/></g><g id="_Group_13" data-name="&lt;Group&gt;"><path id="_Path_33" data-name="&lt;Path&gt;" class="cls-35" d="M1012.91,708.21a47.42,47.42,0,0,0-10.16,2.55,166.55,166.55,0,0,0,1.4,22.24,49.27,49.27,0,0,1,11.35-6.2,56.29,56.29,0,0,1,17.51-3.25,125,125,0,0,1,5.87-12.62C1030.33,708.65,1021.61,707.07,1012.91,708.21Z"/></g><path id="_Path_34" data-name="&lt;Path&gt;" class="cls-36" d="M1237.22,553a268.58,268.58,0,0,1,4,61.44c-.23,4.57-.58,9.2-2.1,13.52-2.93,8.3-9.77,14.51-16.35,20.34-5.34,4.73-10.76,9.51-17.18,12.61-14,6.75-30.46,4.58-45.69,1.64-21.58-4.15-43.44-9.77-61.52-22.25-8.57-5.92-17.45-13.28-19.3-23.53-.76-4.2-.26-8.51.08-12.77.7-8.93.67-18-1.45-26.73-2.06-8.46-6-16.45-7.11-25.09-2-16.05,6.39-31.38,14.62-45.29s17-28.9,15.8-45c15.68-8.77,29.77-19.6,47.42-22.94s37.45-.36,50.48,12c7.6,7.21,12.28,16.91,16.35,26.56C1224.77,499.93,1232.84,529.1,1237.22,553Z"/><path id="_Path_35" data-name="&lt;Path&gt;" class="cls-37" d="M1148.26,491.79a493.55,493.55,0,0,1-8.21,118.12c-.49,2.56-1,5.44.51,7.6,1.22,1.81,3.44,2.61,5.5,3.29,4.57,1.51,9.23,3,14,3.12s9.89-1.52,12.9-5.27c1.93-2.4,2.85-5.45,3.61-8.44,3.87-15.3,4.58-31.22,4.53-47a506.75,506.75,0,0,0-6.75-80.74Z"/><g id="_Group_14" data-name="&lt;Group&gt;"><path id="_Path_36" data-name="&lt;Path&gt;" class="cls-38" d="M1334.49,737c4.75-42,2.35-85.28-13.31-124.4-13.06-32.63-34.69-61-53-91A498.71,498.71,0,0,1,1238,463c-16.85-7.29-46-3.75-48.57,14.43-3.12,22.43,2,45.4,11,66.18s21.67,39.74,34.29,58.54c20.56,30.63,41.24,61.37,57.17,94.64a379.86,379.86,0,0,1,17.88,44.43A62.24,62.24,0,0,1,1334.49,737Z"/><path id="_Path_37" data-name="&lt;Path&gt;" class="cls-39" d="M1365,777.16a29.58,29.58,0,0,0-1.72-7.74,37.22,37.22,0,0,0-3.7-7.87,29,29,0,0,0-17.39-12.43c-2.56-.62-9.24-.28-8.88-2.89.43-3.06.81-6.14,1.16-9.22a62.24,62.24,0,0,0-24.67,4.23c.33,1,.7,2,1,3-1.95,1.67-3.43,3.68-5.38,5.35a10,10,0,0,0-3,3.57c-.91,2.23-.09,4.75.73,7,1.53,4.23,3.13,8.59,6.2,11.88a5.39,5.39,0,0,0,2.45,1.67,2.3,2.3,0,0,0,2.62-1,3.52,3.52,0,0,0,.23-1.88q-.26-4.08-.52-8.16c-.1-1.65-.08-3.6,1.25-4.59s3.58-.32,5.21.54c7.22,3.81,10.37,12.94,11.16,21.06a41.48,41.48,0,0,1-.56,10.84,5,5,0,0,0,0,2.64,3.07,3.07,0,0,0,3.9,1.36,6.3,6.3,0,0,0,3.11-3.2c3.31-6.47,1.28-14.26,1.91-21.49a53.86,53.86,0,0,1,2.81,17.8,9.29,9.29,0,0,0,.33,3.61,2.77,2.77,0,0,0,2.78,1.91c1.56-.24,2.22-2.11,2.47-3.67a39.22,39.22,0,0,0-1.82-19.24c1.93,5.08,4.24,10.61,5.51,15.89a6.53,6.53,0,0,0,1.15,2.78,2.12,2.12,0,0,0,2.71.54,2.72,2.72,0,0,0,.84-1.3c2.32-6.15-.34-13-3-19,2.12,3.23,5.08,6.21,7.2,9.44.52.8,1.22,1.69,2.17,1.63C1364.68,780.25,1365.1,778.49,1365,777.16Z"/></g><path id="_Path_38" data-name="&lt;Path&gt;" class="cls-40" d="M1096,451a21.58,21.58,0,0,0-2.86,11c.21,4,2,7.71,3.82,11.29l10.21,20.49c1.62,3.25,3.27,6.55,5.73,9.22,7.2,7.83,19.65,8.39,29.76,5.09s18.9-9.71,28.51-14.29c19.52-9.32,41.91-10.83,63.49-9.33,4.83.33,10.4.55,13.72-3,4.26-4.53,1.85-12.14-2.19-16.87a32.49,32.49,0,0,0-16.11-10.19c-3.06-.83-6.38-1.27-8.9-3.2a20.79,20.79,0,0,1-3.92-4.63,60.43,60.43,0,0,0-33-22.86C1157.64,416.53,1110.25,423.75,1096,451Z"/><g id="_Group_15" data-name="&lt;Group&gt;"><path id="_Path_39" data-name="&lt;Path&gt;" class="cls-41" d="M1246.23,464.62a32.49,32.49,0,0,0-16.11-10.19c-3.06-.83-6.38-1.27-8.9-3.2a20.79,20.79,0,0,1-3.92-4.63,60.43,60.43,0,0,0-33-22.86c-26.66-7.22-74,0-88.26,27.28a26.79,26.79,0,0,0-2.36,6.08,9,9,0,0,1,3-.63c4.33-.1,8.29,2.62,11,6s4.57,7.35,6.83,11.05a53.13,53.13,0,0,0,10.79,12.65c.93.79,2.38,1.55,3.26.7a2.1,2.1,0,0,0,.52-1.37c.49-6.23-9.56-10.16-7.9-16.2,5.42,1.93,8.11,8.07,12.92,11.22a13.81,13.81,0,0,0,15.75-.7c3.73-15.62,17.1-27.78,32.57-32.11,2.55-.71,6.42-.26,6.37,2.39a4.47,4.47,0,0,1-1.47,2.73c-5.43,5.92-12.09,11.61-13.49,19.52,14.72-15.35,39.81-19.55,58.74-9.83a25.89,25.89,0,0,1,8.92,6.92c3,3.95,4.15,8.82,4.45,13.87a8.66,8.66,0,0,0,2.49-1.79C1252.68,477,1250.27,469.35,1246.23,464.62Z"/></g><path id="_Path_40" data-name="&lt;Path&gt;" class="cls-42" d="M1137.5,467c3.1,7.29,1,16,4.13,23.29a3.34,3.34,0,0,0,1,1.47c1.62,1.12,3.59-.81,4.62-2.49l17.34-28.48a82.69,82.69,0,0,0,6.48-12.14,41.18,41.18,0,0,0,1.61-25.25,5.7,5.7,0,0,0-1.85-3.39,5.25,5.25,0,0,0-3.2-.74c-10.33.15-18.44,8.52-25.29,16.27-3.74,4.23-13.2,11.52-14.17,17.21C1127.4,457.46,1135.35,462.66,1137.5,467Z"/><path id="_Path_41" data-name="&lt;Path&gt;" class="cls-43" d="M1163.51,434.15c-7.2,13.68-21.46,24.8-36.91,24.69-3.09,0-6.53-.5-8.44-2.92-1.28-1.61-1.59-3.76-1.86-5.8-.76-5.69-1.86-10.95-2.62-16.65l-5.53-2.55a3.05,3.05,0,0,1-1.21-.8c-.91-1.14.07-2.75.84-4,2.56-4.1,2.74-9.29,1.9-14.05s-2.61-9.31-3.72-14a51.85,51.85,0,0,1,0-23.86,62.28,62.28,0,0,1,30.11,3.29c11.18,4.26,22.2,10.37,29,20.24S1169.08,423.56,1163.51,434.15Z"/><path id="_Path_42" data-name="&lt;Path&gt;" class="cls-44" d="M1180.49,401.89c1.89,10,3.67,20.8-.94,29.84a46.32,46.32,0,0,1-6.94,9.34c-3.43,3.88-6.92,7.81-11.28,10.61,3.85-15,.18-30.6-4.18-45.44-20.68-3.12-34.65-19.18-51.15-32-2-1.58-2.75-5.68-1-7.59s4.39-2.55,6.91-3c14.49-2.54,29.9-1.14,43,5.55S1177.76,387.44,1180.49,401.89Z"/><path id="_Path_43" data-name="&lt;Path&gt;" class="cls-45" d="M1120.21,407.05a43.28,43.28,0,0,1-8.38,0l6,3.82a12.21,12.21,0,0,0-.11,1.52c0,2.94,1.12,5.33,2.5,5.33s2.5-2.39,2.5-5.33S1121.59,407.05,1120.21,407.05Z"/><path id="_Path_44" data-name="&lt;Path&gt;" class="cls-45" d="M1125.16,396.49c-4.81-1.45-10.09,2.6-14.8.89-.27-.75-1.25-1.51-1.17-2.3C1114.22,396,1120.35,395,1125.16,396.49Z"/><g id="_Group_16" data-name="&lt;Group&gt;"><path id="_Path_45" data-name="&lt;Path&gt;" class="cls-46" d="M1127.83,440.18c1.14-1.45,2.32-3.73,1.71-5.47a63.3,63.3,0,0,1-15.24,2.92c.54,3.36,1.13,6.66,1.64,10.05A21.39,21.39,0,0,0,1127.83,440.18Z"/></g><g id="_Group_17" data-name="&lt;Group&gt;"><path id="_Path_46" data-name="&lt;Path&gt;" class="cls-47" d="M1305.41,728.72c1.54,4.15,3,8.32,4.41,12.52a62.24,62.24,0,0,1,24.67-4.23q.81-7.2,1.33-14.44A62,62,0,0,0,1305.41,728.72Z"/></g><g id="_Group_18" data-name="&lt;Group&gt;"><path id="_Path_47" data-name="&lt;Path&gt;" class="cls-32" d="M1191.66,642.89a99.74,99.74,0,0,1-28.88-5.61,449.61,449.61,0,0,1-5.88,66.54c-1.38,8.4-3.06,16.94-7.3,24.32a39.33,39.33,0,0,1-30.51,19.28c-4.34.34-9.1.06-12.58,2.67-5.75,4.32-4.28,13.3-1.35,19.87s6.79,13.89,4,20.51a19.53,19.53,0,0,1-5.72,7c-8.09,6.87-17.69,11.68-27.13,16.53-31.78,16.36-63.25,34.35-88.83,59.31-10.87,10.62-20.57,22.38-31.43,33-46.28,45.3-109.65,66.58-172.77,83.57,23-4.3,45.59-7.75,68.73-12.51,22.45-4.62,45.19-9.34,65.71-19.56,45.26-22.52,74-68.54,115.3-97.68,24.8-17.48,53.53-28.44,79.89-43.47a293.43,293.43,0,0,0,48.92-35c10.14-9,19.79-18.78,26.38-30.6C1206.18,718.84,1199.85,678.83,1191.66,642.89Z"/></g><path id="_Path_48" data-name="&lt;Path&gt;" class="cls-48" d="M747.88,1003.41a348.72,348.72,0,0,0,37.23-3c-.21-10.33-.7-20.78-3.64-30.68-3.64-12.23-12.94-21.94-22.85-30a462.23,462.23,0,0,0-34.88,31.8c-14.66-3.71-30.08-10.13-40.44-21.16-1.93-2-3.84-4.27-6.42-5.4s-6.09-.73-7.56,1.67c-.89,1.44-.86,3.24-.81,4.93.31,9.31.63,18.74,3.18,27.7s7.6,17.57,15.5,22.51c5.36,3.35,11.82,4.94,16.53,9.15,4.25,3.82,6.79,9.57,11.85,12.23s11.77,1.33,16.62-2S744.5,1008.21,747.88,1003.41Z"/><g id="_Group_19" data-name="&lt;Group&gt;"><path id="_Path_49" data-name="&lt;Path&gt;" class="cls-49" d="M723.94,973.81c.11-.57.85-.7,1.42-.72a83.3,83.3,0,0,0,48.71-17.69,87.4,87.4,0,0,0-15.45-15.66,462.23,462.23,0,0,0-34.88,31.8C724.14,972,723.83,974.37,723.94,973.81Z"/><path id="_Path_50" data-name="&lt;Path&gt;" class="cls-50" d="M725.73,1017.34a24.77,24.77,0,0,0-11.33-12.12c-4.2-2.16-9.06-3.14-12.71-6.13-4.53-3.71-6.3-9.7-8.28-15.2a109.19,109.19,0,0,0-10.13-20.82c-2.17-3.47-4.76-7-8.58-8.44a8.6,8.6,0,0,0-6.08.08c.3,8.29.8,16.61,3.07,24.57,2.55,9,7.6,17.57,15.5,22.51,5.36,3.35,11.82,4.94,16.53,9.15,4.25,3.82,6.79,9.57,11.85,12.23a14.54,14.54,0,0,0,10.93.71A10,10,0,0,0,725.73,1017.34Z"/></g></g><g id="_Group_20" data-name="&lt;Group&gt;"><path id="_Path_51" data-name="&lt;Path&gt;" class="cls-51" d="M472.65,588.74q2.52-7.79,5-15.58c1.65-5.11,3.3-10.23,5.38-15.18a99.32,99.32,0,0,1,13.45-22.47c4.51-5.91,9.34-11.59,13.54-17.72,9.56-13.95,16-30.4,28.66-41.6,7.16-6.33,15.88-10.58,23.69-16.07,8.81-6.2,16.41-13.94,24-21.64,10.55-10.75,23-17.37,33.79-27.89,6.12-6,12.36-12.51,20.58-14.87,8.75-2.51,18,.16,27,1.54,13.39,2.05,27,1.18,40.56,2s27.48,3.63,38.2,11.9c6.19,4.78,11,11.13,15.41,17.55a317.21,317.21,0,0,1,35,66.13c1.48,3.81,3.56,8.45,5.39,12.11a193.08,193.08,0,0,0,31.18,45c-.47,4.2-3.56,7.56-6.33,10.76a171.6,171.6,0,0,1-24.94,23.48c-2.81,2.16-6.5-1.32-9.31-3.47A213.92,213.92,0,0,1,742,527.08c5.84,13.35-.07,29,2.46,43.4,1.74,9.92,6.77,18.94,9.5,28.64a16.37,16.37,0,0,1,.71,7.71c-.66,3.13-2.87,5.68-5.13,7.95-16.63,16.72-39.35,25.73-61.7,33.26-6.7,2.26-13.49,4.45-19.67,7.9-5.18,2.9-9.93,6.67-15.5,8.71-6.83,2.49-14.36,2.18-21.57,1.28-14-1.76-28.58-6.18-37.58-17-13-15.66-11.32-40.95-26.94-54Z"/><path id="_Path_52" data-name="&lt;Path&gt;" class="cls-52" d="M740.1,761.22q-40.26,1.66-80.27,6.84c-14.75,1.92-29.61,7.59-43.78,12.1,0,0,46.26,42.63,62,55.47,5.9,4.81,11.29,11.07,18.18,14.29q-5.19,12.63-10.37,25.27c-.2.48-.55,1-1,1s.25-.27.49.18c-33.13-2-66.41-4-98.91-10.79s-67-14.82-90.39-38.38c-28.51-28.74-43.7-86.91-15.57-121.14,12.89-15.68,34.25-20.87,53.93-25.8q39-9.76,77.07-22.87c7.11-2.45,15.3-6.24,16.5-13.66,2.49-15.35,14.76-28,28.76-34.77,6.29-3,13.27-4.38,20.18-5.46,18.78-2.92,40.11-3.53,54.42,9Z"/><path id="_Path_53" data-name="&lt;Path&gt;" class="cls-53" d="M758.12,855.41c1.1,11,2,22.85-3.4,32.5-2.65,4.71-6.82,9-7,14.4-.17,4.88,3.19,9.35,7.4,11.84s9.16,3.33,14,4,9.77,1.07,14.56.13,9.45-3.44,12-7.59c2.42-3.92,2.68-8.79,2.27-13.38a18.38,18.38,0,0,0-1.6-6.66c-1.13-2.27-3-4.09-4.64-6-8.13-9.49-11.58-22.23-12.27-34.71Z"/><path id="_Path_54" data-name="&lt;Path&gt;" class="cls-53" d="M705.35,886.11c5,3.53,11.46,4,17.56,4.1,4.61.1,9.38.09,13.62-1.75s7.81-6,7.56-10.57c-.28-5-4.71-8.71-8.84-11.61-6.21-4.36-12.76-8.56-20.15-10.25-5.44-1.24-11.09-1.07-16.62-1.77a52.89,52.89,0,0,1-19.64-6.64c-2.72-1.57-5.36-3.41-8.4-4.17-8.63-2.15-11,5.44-7.68,11.84,2.44,4.77,8.07,8.26,12.67,10.57s9.63,3.63,14.17,6.47C695.72,876.15,699.6,882,705.35,886.11Z"/><g id="_Group_21" data-name="&lt;Group&gt;"><path id="_Path_55" data-name="&lt;Path&gt;" class="cls-54" d="M740.1,761.22l-6.31-106.89a310.7,310.7,0,0,1-23.55,30.13,213.38,213.38,0,0,1-56.53,44.89c-18.46,10.12-29.16,31.55-37.66,50.81,14.17-4.51,29-10.18,43.78-12.1Q699.79,762.89,740.1,761.22Z"/><path id="_Path_56" data-name="&lt;Path&gt;" class="cls-55" d="M684.83,876.15a.53.53,0,0,0,.25,0C684.79,876,684.44,876.08,684.83,876.15Z"/><path id="_Path_57" data-name="&lt;Path&gt;" class="cls-56" d="M538,714.48c-11.23-4.55-24.87-5-34.81,1.94-11.41,8-15.1,23.21-15.41,37.12-.87,39.3,20.22,78,52.55,100,14.88,5.29,30.7,8.8,46.09,12,32.5,6.77,65.78,8.79,98.91,10.79a.51.51,0,0,0-.24-.22.53.53,0,0,1-.25,0c-.39-.07,0-.18.25,0a1.48,1.48,0,0,0,.8-.92q5.18-12.63,10.37-25.27c-6.89-3.22-12.28-9.48-18.18-14.29-15.76-12.84-62-55.47-62-55.47-12.48-10.87-35.86-34.19-48.34-45.07C558.58,727.13,549.22,719,538,714.48Z"/></g><g id="_Group_22" data-name="&lt;Group&gt;"><path id="_Path_58" data-name="&lt;Path&gt;" class="cls-57" d="M723.18,465.34c1.17,11.52.72,23.49.32,35.06-13.58,5.62-22.53,6.05-37.2,5.13-8.52-.54-16.93-2.19-25.44-2.77-15.11-1-31.26,1.79-42.64,11.78-5.77,5.07-10.71,12.13-18.29,13.38-8.47,1.41-15.94-5.07-23.77-8.59-8.68-3.9-20-3.73-26.52,3.25-5.33,5.75-6,14.34-9.49,21.36a10.1,10.1,0,0,1-2.74,3.64c-2.63,2-6.25,1.49-9.52,1.26A48.44,48.44,0,0,0,491,562.4a147.74,147.74,0,0,0-15.59,17.66c-.93,2.89-1.86,5.79-2.8,8.68l93.93,6.19c15.62,13,13.94,38.33,26.94,54,9,10.83,23.6,15.25,37.58,17,7.21.9,14.74,1.21,21.57-1.28,5.57-2,10.32-5.81,15.5-8.71,6.18-3.45,13-5.64,19.67-7.9,22.35-7.53,45.07-16.54,61.7-33.26,2.26-2.27,4.47-4.82,5.13-7.95a16.37,16.37,0,0,0-.71-7.71c-2.73-9.7-7.76-18.72-9.5-28.64-2.53-14.35,3.38-30.05-2.46-43.4.72,1.14,1.5,2.24,2.24,3.37-1.12-4.06-2.16-8.14-3.06-12.25C737.21,499.93,736.17,478.79,723.18,465.34Z"/></g><g id="_Group_23" data-name="&lt;Group&gt;"><path id="_Path_59" data-name="&lt;Path&gt;" class="cls-58" d="M746.51,578.41a101.38,101.38,0,0,0-16,9.52c-7.21,5-14.43,9.92-21.2,15.46-12.07,9.9-22.59,21.56-34.52,31.63a173,173,0,0,1-51,29.74c2.41.48,4.83.87,7.24,1.17,7.21.9,14.74,1.21,21.57-1.28,5.57-2,10.32-5.81,15.5-8.71,6.18-3.45,13-5.64,19.67-7.9,22.35-7.53,45.07-16.54,61.7-33.26,2.26-2.27,4.47-4.82,5.13-7.95a16.37,16.37,0,0,0-.71-7.71C752,592.07,748.78,585.36,746.51,578.41Z"/></g><path id="_Path_60" data-name="&lt;Path&gt;" class="cls-59" d="M714.13,405.49c14.51,13,21.47,32.16,27.88,50.53l23.55,67.44c-9.41,3.72-29.74,10.31-39.16,14-9.71-16-7.31-35.52-14.52-52.75-9.26-22.13-18.37-47.41-40.07-57.62-6.75-3.17-14.43-4.67-20.19-9.4-15.85-13-13.37-32.76,7.88-31.37C678.81,387.61,699.33,392.28,714.13,405.49Z"/><path id="_Path_61" data-name="&lt;Path&gt;" class="cls-60" d="M644.45,506.34s57.18-14.92,73.64,24.3c15.38,36.63-.78,62.16-29.43,78.92-5.17,3-12.53,1.5-18.4,2.73-9,1.86-16.6,10.23-20.44,18.53s-5.86,17.39-10.17,25.46c-7.06,13.19-20.16,22.78-34.66,26.48s-30.21,1.71-43.79-4.57Z"/><path id="_Path_62" data-name="&lt;Path&gt;" class="cls-61" d="M536.81,570l25.53-34.94c14.29-4.47,28.83,10.62,42.55,4.61,7.28-3.18,10.67-11.34,15.47-17.67,10.59-14,29.79-19.64,47.13-17a43.81,43.81,0,0,1,13.8,4.29c28.15,14.83,34.05,57.91,23.66,83.51-3.4,8.39-11.94,16.4-23.59,22.33-12.73,6.49-28.46,5-40.9,12.07C619.63,639,617,670.57,596.3,682.5c-15.55,8.94-36.56,2.72-48.68-10.5s-16.85-31.68-18.31-49.56c-.84-10.36-.72-20.88,1.47-31C532.28,584.47,532.62,575.73,536.81,570Z"/><polygon id="_Path_63" data-name="&lt;Path&gt;" class="cls-62" points="816.09 460.05 650.49 548.43 659.74 577.56 820.79 477.1 816.09 460.05"/><ellipse id="_Path_64" data-name="&lt;Path&gt;" class="cls-60" cx="638.64" cy="570.82" rx="21.83" ry="26.69"/><g id="_Group_24" data-name="&lt;Group&gt;"><g id="_Group_25" data-name="&lt;Group&gt;"><rect id="_Path_65" data-name="&lt;Path&gt;" class="cls-63" x="570.8" y="523.59" width="261.58" height="1.18" transform="translate(-165.03 397.87) rotate(-28.47)"/></g><g id="_Group_26" data-name="&lt;Group&gt;"><rect id="_Path_66" data-name="&lt;Path&gt;" class="cls-63" x="565.28" y="529.85" width="269.06" height="1.18" transform="translate(-169.35 405.31) rotate(-28.97)"/></g><g id="_Group_27" data-name="&lt;Group&gt;"><rect id="_Path_67" data-name="&lt;Path&gt;" class="cls-63" x="563.01" y="535.14" width="272.77" height="1.18" transform="translate(-171.97 405.78) rotate(-28.97)"/></g><g id="_Group_28" data-name="&lt;Group&gt;"><rect id="_Path_68" data-name="&lt;Path&gt;" class="cls-63" x="562.86" y="539.44" width="274.14" height="1.18" transform="translate(-173.98 406.58) rotate(-28.97)"/></g><g id="_Group_29" data-name="&lt;Group&gt;"><rect id="_Path_69" data-name="&lt;Path&gt;" class="cls-63" x="554.69" y="545.83" width="284.51" height="1.17" transform="translate(-179.32 418.12) rotate(-29.77)"/></g></g><path id="_Path_70" data-name="&lt;Path&gt;" class="cls-64" d="M590.34,577.67c7.54-2.33,10.28-12.55,17.73-15.15a20.57,20.57,0,0,1,6.87-.75l15.27,0c0,1.11,0,2.22-.05,3.34a19.43,19.43,0,0,1-9.54,2.52c-3.16,0-7.32-.19-8.4,2.79,4.78,2.11,10.09,4.26,15.09,2.74,2.79-.85,5.11-2.75,7.61-4.25s5.53-2.61,8.3-1.69c.36,2.35-1.33,4.55-3.27,5.94s-4.21,2.3-6,3.91c-3.44,3.13-4.28,8.29-7.36,11.77-3.44,3.88-9,5-14.11,5.66A173.5,173.5,0,0,1,592.67,596Z"/><path id="_Path_71" data-name="&lt;Path&gt;" class="cls-57" d="M578,572.78l15.28.77c3.16,9,3.61,18.69,2.88,28.19-6.67,3.34-13.06,7.15-19.4,11.09Z"/><path id="_Path_72" data-name="&lt;Path&gt;" class="cls-65" d="M600.78,399a54.62,54.62,0,0,0-6.6,18.16,26.84,26.84,0,0,1-1.62,6.78c-1.2,2.6-3.35,4.61-5.23,6.77a37.93,37.93,0,0,0-7.85,14.51,7.47,7.47,0,0,0-.29,4.15,7.72,7.72,0,0,0,1.77,2.76c5.62,6.33,12.72,11.14,19.77,15.83,15.65,10.41,33,21,51.73,19.48,7.27-.59,14.26-3,21.07-5.62s13.88-5.62,19.25-10.7c13.09-12.41,13.39-34,25.9-47a23.67,23.67,0,0,0,4-4.63c1-1.78,1.25-4.16,0-5.78a7.29,7.29,0,0,0-2.38-1.79c-20.27-11-46.52-9.64-64.12-24.51Z"/><path id="_Path_73" data-name="&lt;Path&gt;" class="cls-66" d="M661.51,433.4a166.66,166.66,0,0,0,4.72-23.61L619.9,420.1A160.39,160.39,0,0,0,632,438.49a155.2,155.2,0,0,1,26.7,3A56.67,56.67,0,0,0,661.51,433.4Z"/><path id="_Path_74" data-name="&lt;Path&gt;" class="cls-64" d="M632,438.49a59.11,59.11,0,0,0,10.67,10.65,10.56,10.56,0,0,0,4,2.11c3.28.69,6.51-1.51,8.62-4.11a26,26,0,0,0,3.38-5.63A155.2,155.2,0,0,0,632,438.49Z"/><g id="_Group_30" data-name="&lt;Group&gt;"><path id="_Path_75" data-name="&lt;Path&gt;" class="cls-41" d="M722.67,413.71a7.29,7.29,0,0,0-2.38-1.79c-20.27-11-46.52-9.64-64.12-24.51L600.78,399a54.62,54.62,0,0,0-6.6,18.16,26.84,26.84,0,0,1-1.62,6.78c-1.2,2.6-3.35,4.61-5.23,6.77a37.93,37.93,0,0,0-7.85,14.51,7.47,7.47,0,0,0-.29,4.15,7.72,7.72,0,0,0,1.77,2.76c5.62,6.33,12.72,11.14,19.77,15.83,4.8,3.19,9.76,6.4,14.87,9.27-2.87-2.37-6.12-4.48-8.83-7-9.65-9-11.75-25.09-4.74-36.3a40.08,40.08,0,0,0,25.11,21.81c-2.81-6.86-8.09-12.37-12-18.67s-6.48-14.39-3.2-21c4.16-8.47,15.17-10.38,24.56-11.24l27.14-2.49c9.29-.85,20.67-.69,25.38,7.36,3.71,6.33,1.42,15.13,5.87,21a42.75,42.75,0,0,0,7.29-18.06c6.16-2.76,13,3.65,14.31,10.27a23.68,23.68,0,0,1,.39,3.36c.58-.71,1.17-1.42,1.82-2.08a23.67,23.67,0,0,0,4-4.63C723.64,417.71,723.91,415.33,722.67,413.71Z"/></g><path id="_Path_76" data-name="&lt;Path&gt;" class="cls-67" d="M602.51,412.12c-4.42-2.68-7.39-7.16-10.22-11.49-7.7-11.82-15.71-24.69-15-38.78.5-10.76,7.64-20.36,16.54-26.44s19.06-10.4,27-17.71c5.21-4.81,10.94-11.38,17.84-9.75,4.29,1,7.26,5.17,8.2,9.47s.25,8.77-.45,13.12c3.6-1,7.15,2.28,8.21,5.85s.43,7.38.36,11.1c-.2,9.82,3.53,19.22,5.93,28.74s3.3,20.27-2,28.56Z"/><path id="_Path_77" data-name="&lt;Path&gt;" class="cls-64" d="M665,382.47c-1.07-4.61-4.14-9.23-6.69-13.21A9.92,9.92,0,0,0,656,379l5.95,16.72C665.29,392.39,666,387.08,665,382.47Z"/><g id="_Group_31" data-name="&lt;Group&gt;"><path id="_Path_78" data-name="&lt;Path&gt;" class="cls-45" d="M592.89,349.27c7-9.17,19.92-12,27.19-20.91,2.44-3,4.18-6.63,7.18-9.08s8-3.19,10.42-.17c3.3,4.12-.28,12.1,4.39,14.55,2.12,1.11,4.78.18,7.07.87,3.06.94,4.5,4.34,5.56,7.36l.42,1.18a19.94,19.94,0,0,0-.57-6.68c-1.06-3.57-4.61-6.8-8.21-5.85.7-4.35,1.39-8.82.45-13.12s-3.91-8.46-8.2-9.47c-6.9-1.63-12.63,4.94-17.84,9.75-7.91,7.31-18.07,11.64-27,17.71s-16,15.68-16.54,26.44c-.66,14.09,7.35,27,15,38.78,2.83,4.33,5.8,8.81,10.22,11.49l10.9-1.42c-6.5-8.07-13.85-15.53-19.12-24.46C587.63,375,585,359.71,592.89,349.27Z"/></g><path id="_Path_79" data-name="&lt;Path&gt;" class="cls-68" d="M582.75,572.33c2.24,3.16,3.17,7,4,10.82,1.78,7.89,3.39,16.48,0,23.8-3.17,6.77-10,11-16.53,14.59q-13.5,7.44-27.62,13.71c-6.75,3-13.79,5.82-21.17,6-18.17.39-42.34-15.6-50-32.05-4-8.63-2.87-18.88.4-27.82a63.84,63.84,0,0,1,15.17-23.48c11.12-10.91,30-2.8,45.3.26C544.89,560.68,580.51,569.17,582.75,572.33Z"/><path id="_Path_80" data-name="&lt;Path&gt;" class="cls-69" d="M839.4,532c-4.33-5.53-9.92-9.92-15.45-14.26l-21.56-16.89a25.19,25.19,0,0,0-7.26-4.44c-5.06-1.68-10.86.16-14.78,3.78-19.6,18-.22,54.57,7.71,74.15,2.71,6.7,5.72,13.77,11.65,17.91,9.84,6.85,29.82,7.32,39.33-.56C855.08,578.4,850.75,546.5,839.4,532Z"/><path id="_Path_81" data-name="&lt;Path&gt;" class="cls-66" d="M800.22,500.41c12.12.37,12.37,15.25,8.34,23.5-3.71,7.62-11.71,11.73-20,9.64-11.47-2.87-14.77-12.22-12.89-22.91C777,503,792.41,500.18,800.22,500.41Z"/><path id="_Path_82" data-name="&lt;Path&gt;" class="cls-64" d="M788.55,520.55c4.82.17,9.87-1.41,13.06-5,3.55-4,4.27-9.76,4.32-15.12a13.46,13.46,0,0,0-1-6.28c-1.69-3.3-5.75-4.85-9.44-4.57s-7.11,2-10.3,3.9c-5.35,3.15-12.19,8.34-10.43,15.41C776.39,515.6,781.65,520.31,788.55,520.55Z"/><path id="_Path_83" data-name="&lt;Path&gt;" class="cls-70" d="M808.37,481.22a45.54,45.54,0,0,0-9.31-8.59,3.22,3.22,0,0,0-2.47-.88,2.24,2.24,0,0,0-1.3,2.74,9,9,0,0,0,1.67,2.89c3.47,4.93,4.64,15.62,11.84,17C816.59,495.92,810.59,484.13,808.37,481.22Z"/><path id="_Path_84" data-name="&lt;Path&gt;" class="cls-71" d="M635.84,339.16a244.51,244.51,0,0,1,33.31,69.13c1.87,6.23-1.1,11.79-1.64,18.26-5.26,2.61-11.9,5.15-17.16,7.76-11.27-3.07-21.84-7.49-32.54-12.18-1.9-2.67-3.48-7.46-4.84-10.44q-3.72-8.13-7.43-16.28c2.12-3.45,4.35-6.69,5.25-10.64a221.42,221.42,0,0,0-12-24.83c9.57-3.53,21.36,1.2,29.62-4.78C633.64,351.39,634.74,345.49,635.84,339.16Z"/><path id="_Path_85" data-name="&lt;Path&gt;" class="cls-70" d="M669.15,408.29a244,244,0,0,0-30.38-64.73c14.31,28.59,32.38,58.73,27.74,83.46.33-.16.69-.31,1-.47C668.05,420.08,671,414.52,669.15,408.29Z"/><path id="_Path_86" data-name="&lt;Path&gt;" class="cls-64" d="M595.59,401.14c1.62,4.78,3.53,9.68,7.4,12.91s9.9,4.37,14,1.4C617,415.45,600.87,400.67,595.59,401.14Z"/><path id="_Path_87" data-name="&lt;Path&gt;" class="cls-45" d="M616,378.89a12.57,12.57,0,0,1,.82-3.34,4.26,4.26,0,0,1,2.39-2.36c.57-.18,1.17-.2,1.74-.37,1-.31,2-1.1,3.06-.88a1.68,1.68,0,0,1,1,.71,1.58,1.58,0,0,1,.09,1.65,1.42,1.42,0,0,1-1.48.69A7,7,0,0,0,616,378.89Z"/><path id="_Path_88" data-name="&lt;Path&gt;" class="cls-45" d="M640.26,362.25A4.14,4.14,0,0,1,645,361a1,1,0,0,1,.21.15c.25.26.06.72-.25.91a3,3,0,0,1-1.05.23,3,3,0,0,0-2.2,1.78,10.23,10.23,0,0,0-.42,2.08,2.49,2.49,0,0,1-1,1.79C637.2,369.69,639.49,363.12,640.26,362.25Z"/><path id="_Path_89" data-name="&lt;Path&gt;" class="cls-45" d="M630.38,391c1,2.58,1,5,0,5.38s-2.63-1.38-3.63-4-1-5,0-5.38S629.38,388.45,630.38,391Z"/><path id="_Path_90" data-name="&lt;Path&gt;" class="cls-45" d="M649.75,379.41c1,2.57,1,5,0,5.37s-2.64-1.38-3.64-4-1-5,0-5.37S648.75,376.83,649.75,379.41Z"/><path id="_Path_91" data-name="&lt;Path&gt;" class="cls-72" d="M649.1,397.73a5.22,5.22,0,0,1-3-2.61,38.46,38.46,0,0,1-4.42-9.51c2.87,1.18,5.64,2.47,8.51,3.64a5,5,0,0,1,1.54.86,3.48,3.48,0,0,1,.67,3.74C652,395.11,650,396.74,649.1,397.73Z"/><path id="_Path_92" data-name="&lt;Path&gt;" class="cls-46" d="M657.18,402.29a56.33,56.33,0,0,1-18.65,9.19,16.74,16.74,0,0,0,14.31,7.16,9.26,9.26,0,0,0,4.36-1.14,5,5,0,0,0,2.51-3.62c.24-2.21-1.14-4.16-1.66-6.23C657.9,407.07,657,402.46,657.18,402.29Z"/><path id="_Path_93" data-name="&lt;Path&gt;" class="cls-73" d="M644.11,416.49a16.26,16.26,0,0,0,8.73,2.15,9.26,9.26,0,0,0,4.36-1.14,5.62,5.62,0,0,0,1.76-1.67A31.11,31.11,0,0,0,644.11,416.49Z"/><path id="_Path_94" data-name="&lt;Path&gt;" class="cls-70" d="M803.14,493c-3.42-4.44-7.15-8.81-12-11.68a4.4,4.4,0,0,0-2.37-.8c-1.67.09-2.77,2-2.63,3.65a9.47,9.47,0,0,0,2.12,4.49l6.66,9.36a10.3,10.3,0,0,0,3.29,3.37C804.67,504.84,806.28,497.12,803.14,493Z"/><path id="_Path_95" data-name="&lt;Path&gt;" class="cls-70" d="M787.61,492c-2.2-2-4.59-4.15-7.55-4.61a2.26,2.26,0,0,0-1.29.1,2,2,0,0,0-.94,1.22A6.55,6.55,0,0,0,779,494.2c1.1,1.62,2.56,3,3.67,4.58,2.39,3.47,5.5,13.81,11.08,8.18S791.36,495.41,787.61,492Z"/><path id="_Path_96" data-name="&lt;Path&gt;" class="cls-70" d="M776.3,495.56a4.82,4.82,0,0,0-3.3-1.17,3.31,3.31,0,0,0-2.52,3.08c-.19,2.36,1.46,4.44,3,6.23l3.63,4.19a18.2,18.2,0,0,0,4.11,3.83c4.43,2.68,9.07-.27,6.69-5C785.76,502.45,780.16,498.22,776.3,495.56Z"/><polygon id="_Path_97" data-name="&lt;Path&gt;" class="cls-74" points="816.09 460.05 861.36 422.42 874.88 465.34 820.79 477.1 816.09 460.05"/><polygon id="_Path_98" data-name="&lt;Path&gt;" class="cls-63" points="861.36 422.42 871.94 418.66 882.53 460.05 874.88 465.34 861.36 422.42"/><path id="_Path_99" data-name="&lt;Path&gt;" class="cls-75" d="M794.84,859.31q1.7-102.19-4.77-204.3c-.67-10.61-1.43-21.33-4.54-31.5s-8.79-19.89-17.56-25.9c-14-9.61-35.2-9.36-49,.6-33.72,24.44-48.12,72.37-33.47,111.35,2.77,7.36,6.43,14.35,10,21.37,21.53,42.42,39.61,86.48,57.66,130.49C764.87,863.76,783.66,863.42,794.84,859.31Z"/><path id="_Path_100" data-name="&lt;Path&gt;" class="cls-76" d="M793.45,723.08a522.6,522.6,0,0,0-12.57-52.4c-6-20.19-18.27-47.78-44.35-43.26-17.46,3-24.55,19.71-28.8,34.94a211,211,0,0,0-6.16,80.76c18.91,38.64,35.29,78.49,51.62,118.3,11.68,2.34,30.47,2,41.65-2.11Q796,791.2,793.45,723.08Z"/></g><g id="_Group_32" data-name="&lt;Group&gt;"><g id="_Group_33" data-name="&lt;Group&gt;"><path id="_Path_101" data-name="&lt;Path&gt;" class="cls-77" d="M396,1218.33c31.42-8.84,61.15-25.83,81.53-51.32s30.48-60,23.06-91.75c-5.55-23.77-20.4-45.93-18.63-70.27,1.92-26.46,23.21-53.22,11.23-76.88-4.06,17.77-20.53,29.34-34.62,40.91s-31.6,22.51-27.55,40.29c-9.61-26-3.84-55,5.16-81.21,4.8-14,10.55-27.89,11.37-42.63,1.38-25-11.51-48.38-24-70.12-.91,16.22-6.77,33.83-21,41.64-13.06,7.15-31.65,5.17-38.74,18.26,9.53-13.6,19.09-27.52,24.3-43.29s5.56-33.92-2.82-48.27c-.95,13.64-11.27,24.86-22.61,32.49s-24.23,12.92-34.87,21.5a71.1,71.1,0,0,0-25.75,47,164.76,164.76,0,0,1,6.48-65.09c5.46-17.65,13.94-34.58,16-52.93,2.71-24-6-48.25-20-67.94s-31.4-29.42-51-43.54c14,21.73,7.51,51.15-5.79,73.32S215.32,768.83,202,791a139.9,139.9,0,0,0-19.76,73.08c-26.68-18.61-35.86-58.31-20.07-86.74-20.66,14.37-32.45,40.56-29.51,65.56,3.11,26.44,21.15,50.59,18.64,77.09-2.66,28.21-28.18,51.36-27.15,79.67-5.67-17.45-5-34.53-6.31-52.83s-9-38.69-26.26-44.84c9.74,10.75,10.11,27.33,5.66,41.14S84.33,969,77.73,981.94a153.61,153.61,0,0,0,82.57,213.67C232.3,1222.75,322,1239.18,396,1218.33Z"/><g id="_Group_34" data-name="&lt;Group&gt;"><g id="_Group_35" data-name="&lt;Group&gt;"><g id="_Group_36" data-name="&lt;Group&gt;"><path class="cls-78" d="M444.4,1048.24A69,69,0,0,1,429,1106.37c3.25-26.74-12.62-52.26-31.7-71.27-12.79-12.74-28.18-25.28-31.17-43.09-2.06-12.26,2.31-24.58,6.61-36.25-24.67,16.35-36.55,48.41-32.51,77.73a55.67,55.67,0,0,1-10.94-49.59c3.5-12.86,11.72-24.72,11.45-38a31.33,31.33,0,0,0-16.09-26.4c2.58,8.44-.91,17.64-6.06,24.8s-11.91,13-17.17,20.13c-8,10.78-13.62,25.33-17.67,38.13,2.09-13.44,4.18-27.1,2.4-40.58s-8-27-19.39-34.47c2.52,28-8.88,61.63-26.44,83.63,8.24-34.27-.16-70-4.34-105s-2.83-74.05,20.49-100.49c-26.65,12.75-44.94,41.32-45.38,70.85-.25,17,4.87,33.49,7,50.31s.64,35.49-10.65,48.15a63.48,63.48,0,0,0-23.17-58.67,69.85,69.85,0,0,1-6.6,51.32c-7.83,13.93-20.2,24.7-29.53,37.68a102.89,102.89,0,0,0-17,79.74c-22.23-20.15-33.62-51.61-29.45-81.33-26,33.8-33.62,80.18-22.32,121.1,17.51,32.13,46.63,57.92,80.91,70.84,72,27.14,161.68,43.57,235.74,22.72,23.42-6.59,45.9-17.71,64.27-33.5C479.33,1140.84,474.41,1086.07,444.4,1048.24Z"/></g><g id="_Group_37" data-name="&lt;Group&gt;"><path class="cls-78" d="M366,872.19a17.94,17.94,0,0,0-2.14,3.06Z"/></g></g><path id="_Path_102" data-name="&lt;Path&gt;" class="cls-79" d="M202,1202.12c-23.81-10.09-37.76-36.57-38.89-62.41s8.56-51,21-73.7c-2.31,12.35-4.62,25-3,37.41s8,25,19.05,30.87c-8.34-11.71-6.47-28.37.75-40.81s18.84-21.6,30.19-30.43,23-18,30.27-30.37a74.46,74.46,0,0,1-2.71,43.21c-2.57,6.84-6.18,13.37-7.61,20.54s-.19,15.51,5.46,20.16a25.55,25.55,0,0,1,8.56-26.53A39.34,39.34,0,0,0,286,1124.58c-3.67-6.36-1-14.65,3.42-20.49s10.54-10.31,14.93-16.2a37,37,0,0,0,5.58-32.57c14.49,7,22.9,23.08,25,39s-1,32.12-4.1,47.93c14.14-13.38,28.71-30.17,33.53-49,16.22,11.65,22.87,32.74,24.23,52.67.76,11.27.06,23-5.19,33-3,5.78-7.46,10.71-12.16,15.26C328,1236.16,257.58,1225.64,202,1202.12Z"/><path id="_Path_103" data-name="&lt;Path&gt;" class="cls-77" d="M79.72,877.07c-2.4-9.53-11.62-15.37-19.37-21.41s-15.26-15.4-12.23-24.75c2.33-7.21,9.94-11.08,16.85-14.2-2.35,9.12,1.74,20.71,6.63,28.76,1.83,3,4.14,5.81,5.45,9.11C79.69,861.23,78.13,870.09,79.72,877.07Z"/><path id="_Path_104" data-name="&lt;Path&gt;" class="cls-77" d="M237.18,630.48q-5.85-7.05-11.69-14.09c-6.22-7.5-12.65-15.41-14.64-24.95s2.14-21.12,11.41-24.13C219.65,589.41,226.94,610.72,237.18,630.48Z"/><path id="_Path_105" data-name="&lt;Path&gt;" class="cls-77" d="M512.25,1022.9a51.81,51.81,0,0,1-3.61-7.92c-3.13-9.49-.58-20,3.88-28.94s10.74-16.85,15.69-25.52c3.84,12,3,26.67-2.62,37.9C521.31,1006.93,508.71,1014.06,512.25,1022.9Z"/></g></g></g><polygon id="_Path_106" data-name="&lt;Path&gt;" class="cls-80" points="1416.59 1134.44 1416.59 1022.9 1323.55 1040.37 1179.84 1046.64 1095.17 1012.78 1039.91 1098.38 1088.9 1127.7 1191.56 1127.7 1416.59 1134.44"/><polygon id="_Path_107" data-name="&lt;Path&gt;" class="cls-81" points="1095.17 1012.78 1181.4 954.12 1432.27 930.61 1416.59 1022.9 1399.91 1063.88 1181.4 1063.88 1095.17 1012.78"/><g id="_Group_38" data-name="&lt;Group&gt;"><path id="_Path_108" data-name="&lt;Path&gt;" class="cls-82" d="M835.69,1106.22l6.28-32.61,27.42-23.84,51.75,8.85,23.51,35.05v12.55S889.78,1121.9,835.69,1106.22Z"/><g id="_Group_39" data-name="&lt;Group&gt;"><path id="_Path_109" data-name="&lt;Path&gt;" class="cls-83" d="M921.14,1058.62l-51.75-8.85,36.07,18,8.62,27.44-24.6,17.94c31.54-.21,55.17-7,55.17-7v-12.55Z"/></g></g><g id="_Group_40" data-name="&lt;Group&gt;"><path id="_Path_110" data-name="&lt;Path&gt;" class="cls-17" d="M584.08,1022.36s81.42,6.06,64.24,0S584.08,1022.36,584.08,1022.36Z"/><path id="_Path_111" data-name="&lt;Path&gt;" class="cls-82" d="M630.49,1024c3.37-6.45-1.46-14.73-8.09-17.72s-14.29-2.16-21.51-1.29c-3.62.44-7.34.92-10.49,2.75a13.8,13.8,0,0,0-6.32,14.62C600,1023.05,614.55,1023.31,630.49,1024Z"/><g id="_Group_41" data-name="&lt;Group&gt;"><path id="_Path_112" data-name="&lt;Path&gt;" class="cls-84" d="M622.4,1006.28c-.52-.23-1-.4-1.58-.59a3.43,3.43,0,0,1,0,1.93,5.83,5.83,0,0,1-2.35,2.7c-5.81,4.36-11.79,8.7-18.64,11.09a32.32,32.32,0,0,1-5.27,1.35c12,.42,23.53.71,35.9,1.24C633.86,1017.55,629,1009.27,622.4,1006.28Z"/></g></g><g id="_Group_42" data-name="&lt;Group&gt;"><path id="_Path_113" data-name="&lt;Path&gt;" class="cls-17" d="M953.28,1032.47s77.61.25,61.14-8.47S953.28,1032.47,953.28,1032.47Z"/><path id="_Path_114" data-name="&lt;Path&gt;" class="cls-82" d="M960,1001.24c4.83-1,10.13-1.7,14.52.59,6.69,3.5,8.49,12.19,8.62,19.75a6.52,6.52,0,0,1-.33,2.64,6.12,6.12,0,0,1-2.71,2.66c-9,5.38-30.36,9.15-38.93.29C927,1012.54,948.59,1003.73,960,1001.24Z"/><g id="_Group_43" data-name="&lt;Group&gt;"><path id="_Path_115" data-name="&lt;Path&gt;" class="cls-85" d="M974.58,1001.87a18.16,18.16,0,0,1,0,10,16.84,16.84,0,0,1-4.29,8.25,20.57,20.57,0,0,1-7.69,4.07,58.16,58.16,0,0,1-20.86,3.43c8.89,8.22,29.55,4.52,38.39-.76a6.12,6.12,0,0,0,2.71-2.66,6.52,6.52,0,0,0,.33-2.64C983,1014.05,981.22,1005.39,974.58,1001.87Z"/></g></g><g id="_Group_44" data-name="&lt;Group&gt;"><path id="_Path_116" data-name="&lt;Path&gt;" class="cls-86" d="M822,42.7a2.86,2.86,0,0,0-2.17-1.34,2.37,2.37,0,1,0,0,4.57A2.88,2.88,0,0,0,822,44.6,1.85,1.85,0,0,0,822,42.7Z"/><path id="_Path_117" data-name="&lt;Path&gt;" class="cls-86" d="M635.78,101.1c-1.49,0-2.8,1.85-1.83,3.2.32.45.65.89,1,1.31a1.16,1.16,0,0,0,1.64,0c.36-.42.69-.86,1-1.31C638.58,103,637.27,101.1,635.78,101.1Z"/><path id="_Path_118" data-name="&lt;Path&gt;" class="cls-86" d="M681.56,14.25a1.88,1.88,0,0,0-3.76,0c0,.39-.07.78-.1,1.17-.23,2.56,4.19,2.56,4,0C681.63,15,681.6,14.64,681.56,14.25Z"/><path id="_Path_119" data-name="&lt;Path&gt;" class="cls-86" d="M925.84,4.31a1.71,1.71,0,0,0,0,3.42A1.71,1.71,0,0,0,925.84,4.31Z"/><path id="_Path_120" data-name="&lt;Path&gt;" class="cls-86" d="M206.18,32.66a1.58,1.58,0,0,0,0,3.16A1.58,1.58,0,0,0,206.18,32.66Z"/><path id="_Path_121" data-name="&lt;Path&gt;" class="cls-86" d="M272,35.87a1.51,1.51,0,0,0,0,3A1.51,1.51,0,0,0,272,35.87Z"/><path id="_Path_122" data-name="&lt;Path&gt;" class="cls-86" d="M265.76,74.73a8.88,8.88,0,0,0-1.63.22,1.69,1.69,0,0,0,0,3.24,8.09,8.09,0,0,0,1.63.22C268.12,78.58,268.13,74.57,265.76,74.73Z"/><path id="_Path_123" data-name="&lt;Path&gt;" class="cls-86" d="M275.16,124.07a1.11,1.11,0,0,0,0,2.21A1.11,1.11,0,0,0,275.16,124.07Z"/><path id="_Path_124" data-name="&lt;Path&gt;" class="cls-86" d="M422.55,42.23l-1.18,0a1.39,1.39,0,0,0,0,2.77l1.18,0A1.42,1.42,0,0,0,422.55,42.23Z"/><path id="_Path_125" data-name="&lt;Path&gt;" class="cls-86" d="M438.23,4.49a1.53,1.53,0,0,0,0,3.05A1.53,1.53,0,0,0,438.23,4.49Z"/><path id="_Path_126" data-name="&lt;Path&gt;" class="cls-86" d="M36.85,18.73l-1.18.07a1.33,1.33,0,0,0,0,2.65l1.18.07C38.64,21.63,38.65,18.62,36.85,18.73Z"/><path id="_Path_127" data-name="&lt;Path&gt;" class="cls-86" d="M19.6,64.29a1.31,1.31,0,0,0,0,2.61A1.31,1.31,0,0,0,19.6,64.29Z"/><path id="_Path_128" data-name="&lt;Path&gt;" class="cls-86" d="M83.35,39.91a3.88,3.88,0,0,1-.52-1.11.54.54,0,0,0-1,0,3.88,3.88,0,0,1-.52,1.11,1.19,1.19,0,1,0,2.07,0Z"/><path id="_Path_129" data-name="&lt;Path&gt;" class="cls-86" d="M47.82,42.38a1.27,1.27,0,0,0,0,2.53A1.27,1.27,0,0,0,47.82,42.38Z"/><path id="_Path_130" data-name="&lt;Path&gt;" class="cls-86" d="M931.37,52.22a9.9,9.9,0,0,0-.88-.69c-1.39-1.09-3.67-.51-3.67,1.52s2.28,2.62,3.67,1.52a7.22,7.22,0,0,0,.88-.69A1.19,1.19,0,0,0,931.37,52.22Z"/><path id="_Path_131" data-name="&lt;Path&gt;" class="cls-86" d="M994.83,94.27a1.12,1.12,0,0,0,0,2.24A1.12,1.12,0,0,0,994.83,94.27Z"/><path id="_Path_132" data-name="&lt;Path&gt;" class="cls-86" d="M1070.08,35.59a1.79,1.79,0,0,0,0,3.57A1.79,1.79,0,0,0,1070.08,35.59Z"/><path id="_Path_133" data-name="&lt;Path&gt;" class="cls-86" d="M1184.54,19.84l-1,0a1.84,1.84,0,0,0,0,3.67l1,0C1186.93,23.59,1186.93,19.8,1184.54,19.84Z"/><path id="_Path_134" data-name="&lt;Path&gt;" class="cls-86" d="M1214,51.15c-.12-.49-.25-1-.37-1.46a.87.87,0,0,0-1.67,0c-.13.49-.25,1-.37,1.46C1211.06,53.17,1214.47,53.18,1214,51.15Z"/><path id="_Path_135" data-name="&lt;Path&gt;" class="cls-86" d="M1284.89,4.57a1.45,1.45,0,0,0,0,2.9A1.45,1.45,0,0,0,1284.89,4.57Z"/></g></g></svg>